<svg xmlns="http://www.w3.org/2000/svg" xmlns:xlink="http://www.w3.org/1999/xlink" width="500" zoomAndPan="magnify" viewBox="0 0 375 374.999991" height="500" preserveAspectRatio="xMidYMid meet" version="1.2"><defs><clipPath id="2db41ec32b"><path d="M 171.042969 142.378906 L 204.21875 142.378906 L 204.21875 211.449219 L 171.042969 211.449219 Z M 171.042969 142.378906 "/></clipPath><clipPath id="d0b24a4698"><path d="M 126.132812 106.472656 L 249.132812 106.472656 L 249.132812 183.449219 L 126.132812 183.449219 Z M 126.132812 106.472656 "/></clipPath></defs><g id="d0a52df499"><rect x="0" width="375" y="0" height="374.999991" style="fill:#ffffff;fill-opacity:1;stroke:none;"/><rect x="0" width="375" y="0" height="374.999991" style="fill:#001f20;fill-opacity:1;stroke:none;"/><g style="fill:#00d1f7;fill-opacity:1;"><g transform="translate(93.803122, 249.581028)"><path style="stroke:none" d="M 11.234375 0.421875 C 9.242188 0.421875 7.453125 0.0078125 5.859375 -0.8125 C 4.273438 -1.644531 3.03125 -2.804688 2.125 -4.296875 C 1.226562 -5.785156 0.78125 -7.476562 0.78125 -9.375 C 0.78125 -11.269531 1.226562 -12.960938 2.125 -14.453125 C 3.03125 -15.941406 4.273438 -17.101562 5.859375 -17.9375 C 7.453125 -18.769531 9.242188 -19.1875 11.234375 -19.1875 C 13.054688 -19.1875 14.679688 -18.863281 16.109375 -18.21875 C 17.535156 -17.570312 18.710938 -16.644531 19.640625 -15.4375 L 15.65625 -11.875 C 14.488281 -13.332031 13.117188 -14.0625 11.546875 -14.0625 C 10.222656 -14.0625 9.160156 -13.632812 8.359375 -12.78125 C 7.554688 -11.9375 7.15625 -10.800781 7.15625 -9.375 C 7.15625 -7.945312 7.554688 -6.804688 8.359375 -5.953125 C 9.160156 -5.109375 10.222656 -4.6875 11.546875 -4.6875 C 13.117188 -4.6875 14.488281 -5.421875 15.65625 -6.890625 L 19.640625 -3.328125 C 18.710938 -2.109375 17.535156 -1.175781 16.109375 -0.53125 C 14.679688 0.101562 13.054688 0.421875 11.234375 0.421875 Z M 11.234375 0.421875 "/></g></g><g style="fill:#00d1f7;fill-opacity:1;"><g transform="translate(113.73414, 249.581028)"><path style="stroke:none" d="M 1.53125 -18.75 L 7.84375 -18.75 L 7.84375 -4.90625 L 16.3125 -4.90625 L 16.3125 0 L 1.53125 0 Z M 1.53125 -18.75 "/></g></g><g style="fill:#00d1f7;fill-opacity:1;"><g transform="translate(130.262955, 249.581028)"><path style="stroke:none" d="M 11.359375 0.421875 C 9.335938 0.421875 7.523438 0.00390625 5.921875 -0.828125 C 4.316406 -1.671875 3.054688 -2.835938 2.140625 -4.328125 C 1.234375 -5.816406 0.78125 -7.5 0.78125 -9.375 C 0.78125 -11.25 1.234375 -12.929688 2.140625 -14.421875 C 3.054688 -15.921875 4.316406 -17.085938 5.921875 -17.921875 C 7.523438 -18.765625 9.335938 -19.1875 11.359375 -19.1875 C 13.378906 -19.1875 15.191406 -18.765625 16.796875 -17.921875 C 18.410156 -17.085938 19.671875 -15.921875 20.578125 -14.421875 C 21.492188 -12.929688 21.953125 -11.25 21.953125 -9.375 C 21.953125 -7.5 21.492188 -5.816406 20.578125 -4.328125 C 19.671875 -2.835938 18.410156 -1.671875 16.796875 -0.828125 C 15.191406 0.00390625 13.378906 0.421875 11.359375 0.421875 Z M 11.359375 -4.6875 C 12.148438 -4.6875 12.859375 -4.878906 13.484375 -5.265625 C 14.117188 -5.648438 14.625 -6.191406 15 -6.890625 C 15.375 -7.597656 15.5625 -8.425781 15.5625 -9.375 C 15.5625 -10.320312 15.375 -11.148438 15 -11.859375 C 14.625 -12.566406 14.117188 -13.109375 13.484375 -13.484375 C 12.859375 -13.867188 12.148438 -14.0625 11.359375 -14.0625 C 10.578125 -14.0625 9.867188 -13.867188 9.234375 -13.484375 C 8.597656 -13.109375 8.09375 -12.566406 7.71875 -11.859375 C 7.34375 -11.148438 7.15625 -10.320312 7.15625 -9.375 C 7.15625 -8.425781 7.34375 -7.597656 7.71875 -6.890625 C 8.09375 -6.191406 8.597656 -5.648438 9.234375 -5.265625 C 9.867188 -4.878906 10.578125 -4.6875 11.359375 -4.6875 Z M 11.359375 -4.6875 "/></g></g><g style="fill:#00d1f7;fill-opacity:1;"><g transform="translate(152.980037, 249.581028)"><path style="stroke:none" d="M 10.5 0.421875 C 7.625 0.421875 5.378906 -0.351562 3.765625 -1.90625 C 2.160156 -3.457031 1.359375 -5.632812 1.359375 -8.4375 L 1.359375 -18.75 L 7.6875 -18.75 L 7.6875 -8.625 C 7.6875 -7.25 7.929688 -6.25 8.421875 -5.625 C 8.921875 -5 9.632812 -4.6875 10.5625 -4.6875 C 11.488281 -4.6875 12.195312 -5 12.6875 -5.625 C 13.175781 -6.25 13.421875 -7.25 13.421875 -8.625 L 13.421875 -18.75 L 19.640625 -18.75 L 19.640625 -8.4375 C 19.640625 -5.632812 18.832031 -3.457031 17.21875 -1.90625 C 15.613281 -0.351562 13.375 0.421875 10.5 0.421875 Z M 10.5 0.421875 "/></g></g><g style="fill:#00d1f7;fill-opacity:1;"><g transform="translate(173.982621, 249.581028)"><path style="stroke:none" d="M 1.53125 -18.75 L 10.765625 -18.75 C 12.859375 -18.75 14.703125 -18.367188 16.296875 -17.609375 C 17.898438 -16.859375 19.144531 -15.773438 20.03125 -14.359375 C 20.914062 -12.953125 21.359375 -11.289062 21.359375 -9.375 C 21.359375 -7.46875 20.914062 -5.804688 20.03125 -4.390625 C 19.144531 -2.984375 17.898438 -1.898438 16.296875 -1.140625 C 14.703125 -0.378906 12.859375 0 10.765625 0 L 1.53125 0 Z M 10.5 -4.9375 C 11.863281 -4.9375 12.953125 -5.320312 13.765625 -6.09375 C 14.578125 -6.875 14.984375 -7.96875 14.984375 -9.375 C 14.984375 -10.789062 14.578125 -11.882812 13.765625 -12.65625 C 12.953125 -13.4375 11.863281 -13.828125 10.5 -13.828125 L 7.84375 -13.828125 L 7.84375 -4.9375 Z M 10.5 -4.9375 "/></g></g><g style="fill:#00d1f7;fill-opacity:1;"><g transform="translate(196.110344, 249.581028)"><path style="stroke:none" d=""/></g></g><g style="fill:#00d1f7;fill-opacity:1;"><g transform="translate(204.147048, 249.581028)"><path style="stroke:none" d="M 5.59375 -13.859375 L 0.109375 -13.859375 L 0.109375 -18.75 L 17.421875 -18.75 L 17.421875 -13.859375 L 11.921875 -13.859375 L 11.921875 0 L 5.59375 0 Z M 5.59375 -13.859375 "/></g></g><g style="fill:#00d1f7;fill-opacity:1;"><g transform="translate(221.667059, 249.581028)"><path style="stroke:none" d="M 17.125 -4.765625 L 17.125 0 L 1.53125 0 L 1.53125 -18.75 L 16.78125 -18.75 L 16.78125 -13.984375 L 7.75 -13.984375 L 7.75 -11.796875 L 15.671875 -11.796875 L 15.671875 -7.234375 L 7.75 -7.234375 L 7.75 -4.765625 Z M 17.125 -4.765625 "/></g></g><g style="fill:#00d1f7;fill-opacity:1;"><g transform="translate(239.696057, 249.581028)"><path style="stroke:none" d="M 11.234375 0.421875 C 9.242188 0.421875 7.453125 0.0078125 5.859375 -0.8125 C 4.273438 -1.644531 3.03125 -2.804688 2.125 -4.296875 C 1.226562 -5.785156 0.78125 -7.476562 0.78125 -9.375 C 0.78125 -11.269531 1.226562 -12.960938 2.125 -14.453125 C 3.03125 -15.941406 4.273438 -17.101562 5.859375 -17.9375 C 7.453125 -18.769531 9.242188 -19.1875 11.234375 -19.1875 C 13.054688 -19.1875 14.679688 -18.863281 16.109375 -18.21875 C 17.535156 -17.570312 18.710938 -16.644531 19.640625 -15.4375 L 15.65625 -11.875 C 14.488281 -13.332031 13.117188 -14.0625 11.546875 -14.0625 C 10.222656 -14.0625 9.160156 -13.632812 8.359375 -12.78125 C 7.554688 -11.9375 7.15625 -10.800781 7.15625 -9.375 C 7.15625 -7.945312 7.554688 -6.804688 8.359375 -5.953125 C 9.160156 -5.109375 10.222656 -4.6875 11.546875 -4.6875 C 13.117188 -4.6875 14.488281 -5.421875 15.65625 -6.890625 L 19.640625 -3.328125 C 18.710938 -2.109375 17.535156 -1.175781 16.109375 -0.53125 C 14.679688 0.101562 13.054688 0.421875 11.234375 0.421875 Z M 11.234375 0.421875 "/></g></g><g style="fill:#00d1f7;fill-opacity:1;"><g transform="translate(259.627075, 249.581028)"><path style="stroke:none" d="M 20.015625 -18.75 L 20.015625 0 L 13.6875 0 L 13.6875 -6.90625 L 7.84375 -6.90625 L 7.84375 0 L 1.53125 0 L 1.53125 -18.75 L 7.84375 -18.75 L 7.84375 -12.109375 L 13.6875 -12.109375 L 13.6875 -18.75 Z M 20.015625 -18.75 "/></g></g><g style="fill:#00d1f7;fill-opacity:1;"><g transform="translate(139.613909, 264.375247)"><path style="stroke:none" d="M 4.375 0.078125 C 3.632812 0.078125 2.96875 -0.0820312 2.375 -0.40625 C 1.789062 -0.726562 1.332031 -1.171875 1 -1.734375 C 0.664062 -2.304688 0.5 -2.945312 0.5 -3.65625 C 0.5 -4.363281 0.664062 -5 1 -5.5625 C 1.332031 -6.132812 1.796875 -6.582031 2.390625 -6.90625 C 2.984375 -7.238281 3.644531 -7.40625 4.375 -7.40625 C 4.945312 -7.40625 5.46875 -7.304688 5.9375 -7.109375 C 6.414062 -6.921875 6.820312 -6.640625 7.15625 -6.265625 L 6.484375 -5.609375 C 5.929688 -6.179688 5.242188 -6.46875 4.421875 -6.46875 C 3.878906 -6.46875 3.390625 -6.34375 2.953125 -6.09375 C 2.515625 -5.851562 2.171875 -5.519531 1.921875 -5.09375 C 1.671875 -4.664062 1.546875 -4.1875 1.546875 -3.65625 C 1.546875 -3.125 1.671875 -2.644531 1.921875 -2.21875 C 2.171875 -1.789062 2.515625 -1.453125 2.953125 -1.203125 C 3.390625 -0.960938 3.878906 -0.84375 4.421875 -0.84375 C 5.234375 -0.84375 5.921875 -1.132812 6.484375 -1.71875 L 7.15625 -1.0625 C 6.820312 -0.6875 6.414062 -0.398438 5.9375 -0.203125 C 5.46875 -0.015625 4.945312 0.078125 4.375 0.078125 Z M 4.375 0.078125 "/></g></g><g style="fill:#00d1f7;fill-opacity:1;"><g transform="translate(150.633951, 264.375247)"><path style="stroke:none" d="M 4.40625 0.078125 C 3.664062 0.078125 3 -0.0820312 2.40625 -0.40625 C 1.8125 -0.726562 1.34375 -1.175781 1 -1.75 C 0.664062 -2.320312 0.5 -2.957031 0.5 -3.65625 C 0.5 -4.363281 0.664062 -5 1 -5.5625 C 1.34375 -6.132812 1.8125 -6.582031 2.40625 -6.90625 C 3 -7.238281 3.664062 -7.40625 4.40625 -7.40625 C 5.132812 -7.40625 5.796875 -7.238281 6.390625 -6.90625 C 6.984375 -6.582031 7.445312 -6.132812 7.78125 -5.5625 C 8.113281 -5 8.28125 -4.363281 8.28125 -3.65625 C 8.28125 -2.945312 8.113281 -2.304688 7.78125 -1.734375 C 7.445312 -1.171875 6.984375 -0.726562 6.390625 -0.40625 C 5.796875 -0.0820312 5.132812 0.078125 4.40625 0.078125 Z M 4.40625 -0.84375 C 4.9375 -0.84375 5.414062 -0.960938 5.84375 -1.203125 C 6.269531 -1.453125 6.609375 -1.789062 6.859375 -2.21875 C 7.109375 -2.644531 7.234375 -3.125 7.234375 -3.65625 C 7.234375 -4.1875 7.109375 -4.664062 6.859375 -5.09375 C 6.609375 -5.519531 6.269531 -5.851562 5.84375 -6.09375 C 5.414062 -6.34375 4.9375 -6.46875 4.40625 -6.46875 C 3.863281 -6.46875 3.375 -6.34375 2.9375 -6.09375 C 2.507812 -5.851562 2.171875 -5.519531 1.921875 -5.09375 C 1.671875 -4.664062 1.546875 -4.1875 1.546875 -3.65625 C 1.546875 -3.125 1.671875 -2.644531 1.921875 -2.21875 C 2.171875 -1.789062 2.507812 -1.453125 2.9375 -1.203125 C 3.375 -0.960938 3.863281 -0.84375 4.40625 -0.84375 Z M 4.40625 -0.84375 "/></g></g><g style="fill:#00d1f7;fill-opacity:1;"><g transform="translate(162.875649, 264.375247)"><path style="stroke:none" d="M 7.875 0 L 7.875 -5.328125 L 5.234375 -0.890625 L 4.75 -0.890625 L 2.09375 -5.296875 L 2.09375 0 L 1.09375 0 L 1.09375 -7.3125 L 1.953125 -7.3125 L 5 -2.171875 L 8.015625 -7.3125 L 8.875 -7.3125 L 8.890625 0 Z M 7.875 0 "/></g></g><g style="fill:#00d1f7;fill-opacity:1;"><g transform="translate(176.318119, 264.375247)"><path style="stroke:none" d="M 3.953125 -7.3125 C 4.898438 -7.3125 5.644531 -7.082031 6.1875 -6.625 C 6.726562 -6.175781 7 -5.554688 7 -4.765625 C 7 -3.972656 6.726562 -3.347656 6.1875 -2.890625 C 5.644531 -2.441406 4.898438 -2.21875 3.953125 -2.21875 L 2.140625 -2.21875 L 2.140625 0 L 1.09375 0 L 1.09375 -7.3125 Z M 3.921875 -3.125 C 4.578125 -3.125 5.078125 -3.265625 5.421875 -3.546875 C 5.773438 -3.828125 5.953125 -4.234375 5.953125 -4.765625 C 5.953125 -5.296875 5.773438 -5.703125 5.421875 -5.984375 C 5.078125 -6.265625 4.578125 -6.40625 3.921875 -6.40625 L 2.140625 -6.40625 L 2.140625 -3.125 Z M 3.921875 -3.125 "/></g></g><g style="fill:#00d1f7;fill-opacity:1;"><g transform="translate(187.327724, 264.375247)"><path style="stroke:none" d="M 4.125 0.078125 C 3.15625 0.078125 2.394531 -0.195312 1.84375 -0.75 C 1.300781 -1.3125 1.03125 -2.113281 1.03125 -3.15625 L 1.03125 -7.3125 L 2.078125 -7.3125 L 2.078125 -3.203125 C 2.078125 -1.628906 2.765625 -0.84375 4.140625 -0.84375 C 4.804688 -0.84375 5.316406 -1.035156 5.671875 -1.421875 C 6.023438 -1.804688 6.203125 -2.398438 6.203125 -3.203125 L 6.203125 -7.3125 L 7.21875 -7.3125 L 7.21875 -3.15625 C 7.21875 -2.101562 6.945312 -1.300781 6.40625 -0.75 C 5.863281 -0.195312 5.101562 0.078125 4.125 0.078125 Z M 4.125 0.078125 "/></g></g><g style="fill:#00d1f7;fill-opacity:1;"><g transform="translate(199.057791, 264.375247)"><path style="stroke:none" d="M 2.546875 -6.40625 L 0.046875 -6.40625 L 0.046875 -7.3125 L 6.09375 -7.3125 L 6.09375 -6.40625 L 3.578125 -6.40625 L 3.578125 0 L 2.546875 0 Z M 2.546875 -6.40625 "/></g></g><g style="fill:#00d1f7;fill-opacity:1;"><g transform="translate(208.657793, 264.375247)"><path style="stroke:none" d="M 1.09375 -7.3125 L 2.140625 -7.3125 L 2.140625 0 L 1.09375 0 Z M 1.09375 -7.3125 "/></g></g><g style="fill:#00d1f7;fill-opacity:1;"><g transform="translate(215.365506, 264.375247)"><path style="stroke:none" d="M 7.390625 -7.3125 L 7.390625 0 L 6.53125 0 L 2.140625 -5.453125 L 2.140625 0 L 1.09375 0 L 1.09375 -7.3125 L 1.953125 -7.3125 L 6.34375 -1.859375 L 6.34375 -7.3125 Z M 7.390625 -7.3125 "/></g></g><g style="fill:#00d1f7;fill-opacity:1;"><g transform="translate(227.314843, 264.375247)"><path style="stroke:none" d="M 6.171875 -3.703125 L 7.171875 -3.703125 L 7.171875 -0.84375 C 6.804688 -0.539062 6.382812 -0.3125 5.90625 -0.15625 C 5.425781 0 4.925781 0.078125 4.40625 0.078125 C 3.664062 0.078125 3 -0.0820312 2.40625 -0.40625 C 1.8125 -0.726562 1.34375 -1.171875 1 -1.734375 C 0.664062 -2.304688 0.5 -2.945312 0.5 -3.65625 C 0.5 -4.363281 0.664062 -5.003906 1 -5.578125 C 1.34375 -6.148438 1.8125 -6.597656 2.40625 -6.921875 C 3 -7.242188 3.671875 -7.40625 4.421875 -7.40625 C 5.003906 -7.40625 5.535156 -7.304688 6.015625 -7.109375 C 6.492188 -6.921875 6.898438 -6.640625 7.234375 -6.265625 L 6.578125 -5.625 C 5.992188 -6.1875 5.289062 -6.46875 4.46875 -6.46875 C 3.90625 -6.46875 3.398438 -6.347656 2.953125 -6.109375 C 2.515625 -5.867188 2.171875 -5.535156 1.921875 -5.109375 C 1.671875 -4.679688 1.546875 -4.195312 1.546875 -3.65625 C 1.546875 -3.125 1.671875 -2.644531 1.921875 -2.21875 C 2.171875 -1.789062 2.515625 -1.453125 2.953125 -1.203125 C 3.398438 -0.960938 3.898438 -0.84375 4.453125 -0.84375 C 5.109375 -0.84375 5.679688 -1 6.171875 -1.3125 Z M 6.171875 -3.703125 "/></g></g><g clip-rule="nonzero" clip-path="url(#2db41ec32b)"><path style=" stroke:none;fill-rule:nonzero;fill:#00d1f7;fill-opacity:1;" d="M 202.039062 142.414062 L 176.921875 142.414062 L 171.078125 179.730469 L 181.863281 179.730469 L 177.773438 211.535156 L 204.179688 169.394531 L 189.152344 169.394531 Z M 202.039062 142.414062 "/></g><g clip-rule="nonzero" clip-path="url(#d0b24a4698)"><path style=" stroke:none;fill-rule:nonzero;fill:#00d1f7;fill-opacity:1;" d="M 243.355469 143.390625 C 240.167969 139.640625 235.921875 136.953125 231.226562 135.675781 C 231.273438 135.207031 231.296875 134.734375 231.296875 134.261719 C 231.296875 126.375 224.886719 119.964844 217.015625 119.964844 C 216.015625 119.964844 215.035156 120.066406 214.070312 120.269531 C 209.664062 111.828125 200.933594 106.472656 191.304688 106.472656 C 183.257812 106.472656 175.773438 110.203125 170.921875 116.539062 C 168.480469 115.554688 165.90625 115.058594 163.234375 115.058594 C 157.792969 115.058594 152.652344 117.160156 148.757812 120.964844 C 145.253906 124.394531 143.105469 128.867188 142.625 133.699219 C 138.121094 135.433594 134.105469 138.464844 131.207031 142.355469 C 127.886719 146.824219 126.128906 152.128906 126.128906 157.714844 C 126.128906 171.890625 137.648438 183.417969 151.808594 183.417969 L 163.808594 183.417969 C 165.054688 183.417969 166.0625 182.410156 166.0625 181.164062 L 166.0625 151.554688 C 167.914062 150.699219 169.199219 148.828125 169.199219 146.652344 C 169.199219 143.675781 166.789062 141.257812 163.808594 141.257812 C 160.832031 141.257812 158.417969 143.671875 158.417969 146.652344 C 158.417969 148.828125 159.703125 150.699219 161.554688 151.554688 L 161.554688 178.90625 L 154.660156 178.90625 L 154.660156 165.273438 C 156.511719 164.417969 157.800781 162.546875 157.800781 160.371094 C 157.800781 157.390625 155.386719 154.972656 152.410156 154.972656 C 149.429688 154.972656 147.015625 157.386719 147.015625 160.371094 C 147.015625 162.546875 148.304688 164.417969 150.15625 165.273438 L 150.15625 178.84375 C 139.25 178 130.628906 168.84375 130.628906 157.714844 C 130.628906 148.402344 136.582031 140.277344 145.453125 137.488281 C 146.375 137.199219 147.007812 136.359375 147.027344 135.394531 C 147.25 126.523438 154.363281 119.578125 163.230469 119.578125 C 165.839844 119.578125 168.332031 120.183594 170.644531 121.375 C 171.671875 121.902344 172.929688 121.570312 173.5625 120.601562 C 177.492188 114.582031 184.121094 110.984375 191.296875 110.984375 C 199.789062 110.984375 207.433594 116.035156 210.773438 123.847656 C 211.246094 124.953125 212.5 125.496094 213.625 125.078125 C 214.703125 124.679688 215.839844 124.476562 217.003906 124.476562 C 222.398438 124.476562 226.777344 128.867188 226.777344 134.261719 C 226.777344 135.121094 226.667969 135.984375 226.4375 136.816406 C 226.273438 137.429688 226.375 138.085938 226.714844 138.621094 C 227.054688 139.15625 227.605469 139.519531 228.230469 139.628906 C 237.722656 141.265625 244.617188 149.464844 244.617188 159.121094 C 244.617188 169.570312 236.460938 178.242188 226.054688 178.867188 C 225.953125 178.875 225.851562 178.886719 225.757812 178.90625 L 225.089844 178.90625 L 225.089844 165.265625 C 226.941406 164.414062 228.226562 162.542969 228.226562 160.367188 C 228.226562 157.386719 225.816406 154.96875 222.835938 154.96875 C 219.859375 154.96875 217.445312 157.382812 217.445312 160.367188 C 217.445312 162.542969 218.730469 164.414062 220.582031 165.265625 L 220.582031 178.90625 L 213.6875 178.90625 L 213.6875 151.550781 C 215.539062 150.695312 216.828125 148.824219 216.828125 146.648438 C 216.828125 143.671875 214.414062 141.253906 211.4375 141.253906 C 208.457031 141.253906 206.042969 143.667969 206.042969 146.648438 C 206.042969 148.824219 207.332031 150.695312 209.183594 151.550781 L 209.183594 181.160156 C 209.183594 182.40625 210.191406 183.414062 211.4375 183.414062 L 226.175781 183.414062 C 226.375 183.414062 226.566406 183.390625 226.753906 183.339844 C 239.328125 182.359375 249.117188 171.804688 249.117188 159.121094 C 249.117188 153.359375 247.0625 147.773438 243.339844 143.386719 Z M 243.355469 143.390625 "/></g></g></svg>